<mxfile host="app.diagrams.net" modified="2023-05-07T21:29:13.560Z" agent="Mozilla/5.0 (Windows NT 10.0; Win64; x64) AppleWebKit/537.36 (KHTML, like Gecko) Chrome/111.0.0.0 Safari/537.36 OPR/97.0.0.0" version="21.2.9" etag="V49Xh3s31Yg-1SQFjPQG" type="github">
  <diagram name="PÃ¡gina-1" id="jvVCu8dvwrYPoW6H7IC8">
    <mxGraphModel>
      <root>
        <mxCell id="0" />
        <mxCell id="1" parent="0" />
      </root>
    </mxGraphModel>
  </diagram>
</mxfile>
